<svg width="24" height="24" viewBox="0 0 24 24" fill="none" xmlns="http://www.w3.org/2000/svg">
<g clip-path="url(#clip0_302_8544)">
<path d="M12 22C6.477 22 2 17.523 2 12C2 6.477 6.477 2 12 2C17.523 2 22 6.477 22 12C22 17.523 17.523 22 12 22ZM9.62184 15.9498C10.0124 16.3404 10.6456 16.3404 11.0361 15.9498L16.6921 10.293C17.0825 9.90252 17.0825 9.2695 16.6921 8.87906C16.3016 8.48857 15.6685 8.4886 15.278 8.87912L10.329 13.829L8.207 11.707C7.81653 11.3165 7.18347 11.3165 6.793 11.707C6.40253 12.0975 6.40254 12.7305 6.793 13.121L9.62184 15.9498Z" fill="#07c14f"/>
</g>
<defs>
<clipPath id="clip0_302_8544">
<rect width="24" height="24" fill="white"/>
</clipPath>
</defs>
</svg>
