<svg width="42" height="42" viewBox="0 0 42 42" fill="none" xmlns="http://www.w3.org/2000/svg">
<g filter="url(#filter0_d_1120_6292)">
<rect x="5" y="0.727539" width="32" height="32" rx="16" stroke="#FF7674" shape-rendering="crispEdges"/>
<rect x="8.5" y="4.22754" width="25" height="25" rx="12.5" fill="#FF7674"/>
<path d="M21 10.2275C19.4844 10.2275 18.1437 10.8899 17.1811 11.8133C16.3673 12.594 15.7776 13.6095 15.6261 14.6298C13.845 15.0672 12.5 16.7927 12.5 18.8763C12.5 21.2964 14.3143 23.2275 16.5176 23.2275H25.9805C27.9087 23.2275 29.5 21.5369 29.5 19.4135C29.5 17.4798 28.1805 15.9051 26.4886 15.6391C26.231 12.5905 23.8584 10.2275 21 10.2275ZM23.5007 16.3097C23.7081 16.5405 23.7081 16.9146 23.5007 17.1454C23.2932 17.3761 22.9568 17.3761 22.7493 17.1454L21.5312 15.7905V20.273C21.5312 20.5993 21.2934 20.8639 21 20.8639C20.7066 20.8639 20.4688 20.5993 20.4688 20.273V15.7905L19.2507 17.1454C19.0432 17.3761 18.7068 17.3761 18.4993 17.1454C18.2919 16.9146 18.2919 16.5405 18.4993 16.3097L20.6243 13.9461C20.8318 13.7153 21.1682 13.7153 21.3757 13.9461L23.5007 16.3097Z" fill="white"/>
</g>
<defs>
<filter id="filter0_d_1120_6292" x="0.5" y="0.227539" width="41" height="41" filterUnits="userSpaceOnUse" color-interpolation-filters="sRGB">
<feFlood flood-opacity="0" result="BackgroundImageFix"/>
<feColorMatrix in="SourceAlpha" type="matrix" values="0 0 0 0 0 0 0 0 0 0 0 0 0 0 0 0 0 0 127 0" result="hardAlpha"/>
<feOffset dy="4"/>
<feGaussianBlur stdDeviation="2"/>
<feComposite in2="hardAlpha" operator="out"/>
<feColorMatrix type="matrix" values="0 0 0 0 0 0 0 0 0 0 0 0 0 0 0 0 0 0 0.25 0"/>
<feBlend mode="normal" in2="BackgroundImageFix" result="effect1_dropShadow_1120_6292"/>
<feBlend mode="normal" in="SourceGraphic" in2="effect1_dropShadow_1120_6292" result="shape"/>
</filter>
</defs>
</svg>
